<?xml version="1.0" encoding="UTF-8"?><svg id="a" xmlns="http://www.w3.org/2000/svg" viewBox="0 0 546.00092 104.99981"><g id="b"><path d="M510.34162,103.91957c-9.29749.31181-18.25483-2.23934-25.31299-8.02192-6.71801-6.06605-10.23291-14.73993-9.6093-23.69727V24.15389h31.06723v48.04649c0,2.23934,1.92753,4.16686,4.16686,4.16686s3.85506-1.92753,4.16686-4.16686V24.15389h31.09558v48.04649c0,10.26126-3.23145,18.25483-9.63764,23.69727-7.68177,5.78259-16.97926,8.64553-25.9366,8.02192ZM121.77447,103.91957h0c-22.4217-.31181-40.67653-18.59498-40.36472-41.32849-.65196-22.4217,17.29107-41.01668,39.71276-41.32849,22.4217-.62361,41.01668,17.29107,41.32849,39.71276v1.92753c0,10.91322-4.16686,21.45793-11.84863,29.16805-7.68177,7.68177-17.94303,11.84863-28.8279,11.84863ZM121.77447,51.05426h0c-6.4062,0-11.84863,5.13063-11.84863,11.53683s5.10228,11.84863,11.50848,11.84863,11.87698-5.13063,11.87698-11.53683v-.31181c0-6.4062-5.13063-11.53683-11.53683-11.53683ZM434.431,103.91957h0c-13.15255,0-22.10989-3.85506-33.33491-10.26126l8.67388-20.49417s12.8124,8.33373,21.45793,8.33373c.96376,0,1.89918,0,2.86295-.34015,1.61572-.31181,2.57949-1.58738,2.57949-3.2031,0-1.58738-.65196-2.86295-2.23934-3.51491-1.61572-.62361-3.54325-1.27557-5.13063-1.58738-6.09439-1.61572-15.70369-3.85506-20.49417-13.15255-5.44243-10.23291-3.2031-22.7335,5.44243-30.10347,6.71801-5.44243,15.05173-8.33373,23.69727-8.33373h1.61572c9.6093.31181,18.87844,3.2031,27.21217,8.64553l-8.64553,20.52251c-5.75424-3.2031-13.46436-6.74635-18.25483-6.74635-2.57949,0-3.85506.96376-4.16686,2.89129-.31181,2.89129,2.55114,3.85506,7.36996,5.13063,4.16686.96376,7.99358,2.23934,11.84863,4.16686,9.29749,5.44243,14.08797,16.3273,11.19668,26.90037-1.27557,6.09439-4.79048,11.19668-9.9211,14.73993-6.09439,4.47867-13.77616,6.71801-21.76974,6.4062ZM32.39949,101.02828h0v-39.08915l17.60287,39.08915h35.57425l-18.90679-39.08915,17.94303-37.47343h-35.57425l-16.63911,37.16162V24.4657H.99211v76.56258h31.40738ZM192.55447,101.02828h-28.17594l11.53683-76.56258h28.48774l9.63764,30.75542,9.6093-30.75542h28.48774l10.57306,72.08391,24.34923-72.08391h31.06723l26.27675,76.56258h-32.68295l-9.26915-36.19786-9.29749,36.19786h-58.30775l-4.16686-29.1397-7.99358,29.1397h-18.28318l-7.99358-29.1397-3.85506,29.1397ZM384.76878,101.02828h0l-.31181-70.46819h29.1397V.11647h-29.1397v24.34923h-49.35041v28.51609h18.28318v48.04649h31.37904Z" fill="#140a9a" fill-rule="evenodd"/></g></svg>