<?xml version="1.0" encoding="UTF-8"?><svg id="a" xmlns="http://www.w3.org/2000/svg" xmlns:xlink="http://www.w3.org/1999/xlink" viewBox="0 0 595.27557 841.88983"><defs><style>.g{fill:none;}.h{fill:url(#f);}.i{fill:url(#d);}.i,.j,.k{isolation:isolate;opacity:.75;}.j{fill:url(#e);}.k{fill:url(#c);}.l{clip-path:url(#b);}</style><clipPath id="b"><rect class="g" width="595.27557" height="841.88977"/></clipPath><linearGradient id="c" x1="-11.69673" y1="-66.68347" x2="595.81192" y2="540.82518" gradientTransform="translate(0 844) scale(1 -1)" gradientUnits="userSpaceOnUse"><stop offset="0" stop-color="#e6edf7" stop-opacity="0"/><stop offset=".75" stop-color="#e6edf7"/></linearGradient><linearGradient id="d" x1="571.75622" y1="917.66956" x2="-260.55576" y2="85.35758" gradientTransform="translate(0 844) scale(1 -1)" gradientUnits="userSpaceOnUse"><stop offset="0" stop-color="#e6edf7" stop-opacity="0"/><stop offset=".75" stop-color="#e6edf7"/></linearGradient><linearGradient id="e" x1="481.35785" y1="25.47107" x2="858.29615" y2="402.40933" gradientTransform="translate(0 844) scale(1 -1)" gradientUnits="userSpaceOnUse"><stop offset=".25" stop-color="#e6edf7"/><stop offset="1" stop-color="#e6edf7" stop-opacity="0"/></linearGradient><linearGradient id="f" x1="251.66958" y1="421.5" x2="938.88156" y2="421.5" gradientUnits="userSpaceOnUse"><stop offset="0" stop-color="#fff"/><stop offset="1" stop-color="#fff"/></linearGradient></defs><g class="l"><polygon class="k" points="-143.3519 841.88861 698.53784 -.00118 1099.43799 -.00118 257.54816 841.88861 -143.3519 841.88861"/><polygon class="i" points="-544.25195 841.88861 297.63779 -.00118 698.53784 -.00118 -143.3519 841.88861 -544.25195 841.88861"/><polygon class="j" points="257.54816 841.88861 1099.43799 -.00118 1500.33801 -.00118 658.44824 841.88861 257.54816 841.88861"/><path class="h" d="M595.27915,233.53293l-99.09989-141.52505,50.84882-7.26309,48.25112,68.90649,77.70635-110.97237-74.47173-10.63822-3.23803-.46974-343.60605,49.08984-.00016,521.78075,6.63273,6.69972c149.72358,151.09505,323.73559,198.75343,331.07299,200.71083l5.90017,1.57697,5.90004-1.57697c7.33745-1.95735,181.34944-49.61564,331.07315-200.71059l6.63274-6.69972.00015-521.78073-215.04722-30.71895s-128.55517,183.59086-128.55519,183.59083ZM747.24747,209.18795l23.61319-106.25454,122.20692,17.45587-.00015,463.10546c-124.21617,122.01453-267.23418,170.90317-297.79186,180.34307-30.55766-9.4399-173.57582-58.32864-297.79174-180.34327l.00016-463.10547,122.20677-17.4558,23.6104,106.24553c4.06644,18.29898,20.27226,31.33688,39.01841,31.38999l63.46566.18045.00063,22.1584c.00076,21.07622-11.63523,40.4615-30.29059,50.26989-11.58783,6.09219-23.79911,12.70868-31.25538,17.31609-22.13802,13.67128-42.90317,30.24022-58.67553,50.4042-21.60343,27.61731-30.49066,48.03085-33.07373,89.553-1.59733,25.73748,4.53635,56.83952,13.33753,76.14657,13.82682,30.32534,30.68203,49.75469,54.67204,70.24596,35.47554,30.29747,78.70661,43.70377,128.02165,43.70377,75.4252,0,134.38885-39.68422,156.55491-102.68945,8.89433-25.28036,9.0083-68.46684,12.00093-90.89232,2.61946-19.63136,18.62256-57.63853,20.53656-62.74015,1.91477-5.10167,3.99803-19.16508-10.84813-24.22207-16.92227-5.76297-30.8617,9.7594-37.33935,17.16095-4.32721,4.94498-31.67893,40.50491-49.4255,75.07213-19.08387,37.17332-37.29738,64.23553-58.32124,74.71631-43.38557,21.63144-79.09035-4.87021-83.5686-8.93596-16.53231-15.01558-31.64685-32.71268-29.15818-70.60593,1.77362-27.01607,24.3367-52.03508,48.71884-68.81631,0,0,43.36179-32.62458,61.83402-46.5007,10.35345-7.77698,19.53025-17.50401,25.59846-32.22781l37.44703,78.90871c3.40259,7.16984,12.02685,10.15194,19.13167,6.61523l2.09744-1.04409c6.57189-3.27154,9.56067-11.01765,6.88913-17.85545l-56.93438-145.7234.00051-.01756,54.50429-.17124c18.74198-.05876,34.94149-13.09462,39.0073-31.39009h-.00005Z"/></g></svg>